<svg width="128" height="34" viewBox="0 0 128 34" fill="none" xmlns="http://www.w3.org/2000/svg">
  <path d="M36 8.6C36 13.2 40 17 44.8 17C45.6 17 46.4 16.9 47 16.7V17.8C47 20.5 45 22.4 42.2 22.4C40.1 22.4 38.4 21.2 37.8 19.4H34.4C35.1 22.9 38.2 25.4 42.2 25.4C47 25.4 50.2 22.2 50.2 17.4V9H47V10.1C45.9 9.1 44.4 8.5 42.8 8.5C39.1 8.6 36 11.2 36 8.6ZM47 14.1C46.4 15.3 44.9 16.1 43.3 16.1C41 16.1 39.2 14.4 39.2 12.1C39.2 9.8 41 8.1 43.3 8.1C44.9 8.1 46.4 8.9 47 10.1V14.1Z" fill="black"/>
  <path d="M66.1 25H69.3V16.1C69.3 11.5 66.8 8.6 62.6 8.6C60.5 8.6 58.7 9.5 57.6 11V9H54.4V25H57.6V16.3C57.6 13.3 59.5 11.5 62.1 11.5C64.7 11.5 66.2 13.2 66.2 16.2V25H66.1Z" fill="black"/>
  <path d="M84.8 19.4H81.4C80.8 21.2 79.1 22.4 77 22.4C74.2 22.4 72.2 20.5 72.2 17.8V17.7C72.8 17.9 73.6 18 74.4 18C79.2 18 83.2 14.2 83.2 9.6C83.2 12.2 80.1 9.6 76.4 9.6C74.8 9.6 73.3 10.2 72.2 11.2V10.1H69V18.5C69 23.3 72.2 26.5 77 26.5C81 26.4 84.1 23.9 84.8 19.4ZM72.2 15.2C71.6 14 70.1 13.2 68.5 13.2C66.2 13.2 64.4 14.9 64.4 17.2C64.4 19.5 66.2 21.2 68.5 21.2C70.1 21.2 71.6 20.4 72.2 19.2V15.2Z" fill="black"/>
  <path d="M85.9 21.7C85.9 23.7 87.5 25.3 89.5 25.3C91.5 25.3 93.1 23.7 93.1 21.7C93.1 19.7 91.5 18.1 89.5 18.1C87.5 18.1 85.9 19.7 85.9 21.7Z" fill="black"/>
  <path d="M23.8 16.4C23.9 12.5 27.2 11.1 27.4 11C25.6 8.4 22.8 8 21.8 8C19.4 7.8 17.1 9.5 15.9 9.5C14.7 9.5 12.8 8.1 10.8 8.1C8.10001 8.1 5.60001 9.8 4.20001 12.4C1.30001 17.8 3.40001 25.7 6.20001 30C7.60001 32.1 9.20001 34.4 11.4 34.3C13.5 34.2 14.3 33 16.9 33C19.4 33 20.2 34.3 22.4 34.2C24.7 34.1 26.1 32.1 27.5 30C29.1 27.6 29.8 25.3 29.8 25.2C29.7 25.1 25.1 23.5 25 19.6C25 16.4 28.7 14.5 28.8 14.4C27 11.9 24.2 11.6 23.2 11.5C20.9 11.3 18.8 12.8 17.6 12.8C16.5 12.8 14.7 11.4 12.7 11.4L23.8 16.4Z" fill="black"/>
  <path d="M20.8 6.3C22 4.9 22.8 3 22.6 1C20.9 1.1 18.9 2.1 17.7 3.5C16.6 4.7 15.7 6.7 15.9 8.6C17.8 8.8 19.6 7.8 20.8 6.3Z" fill="black"/>
</svg>