<svg width="128" height="34" viewBox="0 0 128 34" fill="none" xmlns="http://www.w3.org/2000/svg">
  <path d="M40 13.8C40 19.4 44.6 24 50.2 24H77.8C83.4 24 88 19.4 88 13.8V10H40V13.8Z" fill="#0063E5"/>
  <path d="M88 4H40C40 7.2 44.6 10.2 50.2 10.2H77.8C83.4 10.2 88 7.2 88 4Z" fill="#0063E5"/>
  <path d="M88 30C88 26.8 83.4 23.8 77.8 23.8H50.2C44.6 23.8 40 26.8 40 30H88Z" fill="#0063E5"/>
  <path fill-rule="evenodd" clip-rule="evenodd" d="M49.8 14.4C47.2 14.4 45 16.6 45 19.2C45 21.8 47.2 24 49.8 24C52.4 24 54.6 21.8 54.6 19.2C54.6 16.6 52.4 14.4 49.8 14.4ZM78.2 14.4C75.6 14.4 73.4 16.6 73.4 19.2C73.4 21.8 75.6 24 78.2 24C80.8 24 83 21.8 83 19.2C83 16.6 80.8 14.4 78.2 14.4Z" fill="white"/>
</svg>