<svg width="128" height="34" viewBox="0 0 128 34" fill="none" xmlns="http://www.w3.org/2000/svg">
  <path d="M36.4 15.4V25H31V9H38.2C41.8 9 43.8 11 43.8 14.6C43.8 16.2 43.2 17.4 42 18.4C40.8 19.4 39.2 19.8 37.2 19.8H36.4V15.4ZM36.4 13H37.8C39.6 13 40.4 12.2 40.4 10.8C40.4 9.4 39.6 8.6 37.8 8.6H36.4V13Z" fill="#1CE783"/>
  <path d="M54.4 20.8H48L46.8 25H41.2L48.4 9H54.2L61.4 25H55.6L54.4 20.8ZM49.4 17.2H53L51.2 12.2L49.4 17.2Z" fill="#1CE783"/>
  <path d="M71.6 25L68.4 19.4H67V25H61.6V9H69.6C71.6 9 73.2 9.6 74.2 10.6C75.2 11.6 75.8 13 75.8 14.8C75.8 17.2 74.6 18.8 72.4 19.6L76.2 25H71.6ZM67 13V16.4H69C70.6 16.4 71.4 15.8 71.4 14.6C71.4 13.4 70.6 13 69 13H67Z" fill="#1CE783"/>
  <path d="M89.2 20.8H82.8L81.6 25H76L83.2 9H89L96.2 25H90.4L89.2 20.8ZM84.2 17.2H87.8L86 12.2L84.2 17.2Z" fill="#1CE783"/>
  <path d="M97.2 9H102.6V20.6H111V25H97.2V9Z" fill="#1CE783"/>
</svg>