<svg width="128" height="34" viewBox="0 0 128 34" fill="none" xmlns="http://www.w3.org/2000/svg">
  <path d="M14.8 10.2L21.6 24.4L28.4 10.2H34.4L24.4 30H18.8L8.79999 10.2H14.8Z" fill="black"/>
  <path d="M45.6 24.8H37L35.4 30H29.6L39 10.2H43.8L53.2 30H47.2L45.6 24.8ZM39 20.2H43.6L41.2 14.2L39 20.2Z" fill="black"/>
  <path d="M65.2 10.2V30H59.8V21L55 30H51.4L46.6 21V30H41.2V10.2H47.4L53.2 21L59 10.2H65.2Z" fill="black"/>
  <path d="M73.4 30H67.4V10.2H82.2V15H73.4V17.8H81.4V22.4H73.4V30Z" fill="black"/>
  <path d="M95.8 24.8H87.2L85.6 30H79.8L89.2 10.2H94L103.4 30H97.4L95.8 24.8ZM89.2 20.2H93.8L91.4 14.2L89.2 20.2Z" fill="black"/>
  <path d="M104 30V10.2H116.6C118.4 10.2 119.8 10.8 120.8 11.8C121.8 12.8 122.2 14.2 122.2 15.8C122.2 18.2 121 19.8 118.8 20.6L123 30H116.8L113.2 21.4H109.4V30H104ZM109.4 17H115C116.4 17 117.2 16.4 117.2 15.2C117.2 14 116.4 13.4 115 13.4H109.4V17Z" fill="black"/>
</svg>