<svg width="128" height="34" viewBox="0 0 128 34" fill="none" xmlns="http://www.w3.org/2000/svg">
  <path d="M27.4 1L38.8 33H32.2L21 1H27.4Z" fill="#E50914"/>
  <path d="M51.4 1L62.8 33H56.2L44.8 1H51.4Z" fill="#E50914"/>
  <path d="M51.4 1L62.8 33L51.4 1Z" fill="#B1060F"/>
  <path d="M75.6 32V24.4H92V32H75.6Z" fill="#E50914"/>
  <path d="M75.6 19.8V12.2H92V19.8H75.6Z" fill="#E50914"/>
  <path d="M75.6 7.6V0H92V7.6H75.6Z" fill="#E50914"/>
  <path d="M127.8 1H121.2L109.8 33H116.4L127.8 1Z" fill="#E50914"/>
  <path d="M103.6 1H97L85.6 33H92.2L103.6 1Z" fill="#E50914"/>
  <path d="M103.6 1L92.2 33L103.6 1Z" fill="#B1060F"/>
</svg>