<svg width="128" height="34" viewBox="0 0 128 34" fill="none" xmlns="http://www.w3.org/2000/svg">
  <path d="M64 1L74 17L64 33L54 17L64 1Z" fill="#0064FF"/>
  <path d="M31 17L64 1L54 17H74L64 33L97 17L64 1L31 17Z" fill="#0064FF"/>
  <path d="M5.2 12.4H11.4L13.8 22.2L16.2 12.4H21L23.4 22.2L25.8 12.4H31.8L26.6 29H21.4L18.6 18.6L15.8 29H10.6L5.2 12.4Z" fill="white"/>
  <path d="M35.4 29V12.4H49C50.6 12.4 51.8 12.8 52.8 13.8C53.8 14.8 54.2 16 54.2 17.4C54.2 19.6 53.2 21 51.2 21.8L54.8 29H49.2L46.2 22.4H41V29H35.4ZM41 18.8H46C47.2 18.8 47.8 18.2 47.8 17.2C47.8 16.2 47.2 15.6 46 15.6H41V18.8Z" fill="white"/>
  <path d="M75.2 29H69.8V22.4H62.2V29H56.8V12.4H62.2V18.2H69.8V12.4H75.2V29Z" fill="white"/>
  <path d="M89.6 24.6H82L80.6 29H75.4L83.6 12.4H88.2L96.4 29H91L89.6 24.6ZM83.6 20.6H88L85.8 15.4L83.6 20.6Z" fill="white"/>
  <path d="M98 12.4H109.2C111 12.4 112.4 13 113.4 14C114.4 15 115 16.4 115 18.2C115 20 114.4 21.4 113.4 22.4C112.4 23.4 111 24 109.2 24H103.6V29H98V12.4ZM103.6 19.8H108.6C109.8 19.8 110.4 19.2 110.4 18.2C110.4 17.2 109.8 16.6 108.6 16.6H103.6V19.8Z" fill="white"/>
  <path d="M117.2 29V12.4H122.8V29H117.2Z" fill="white"/>
</svg>