<svg width="128" height="34" viewBox="0 0 128 34" fill="none" xmlns="http://www.w3.org/2000/svg">
  <path d="M64.2 0C44.2 0 27.6 13.2 24.2 30.6C23.8 32.4 25.2 34 27 34H121.8C123.4 34 124.8 32.6 124.6 31C122.4 13.4 104.8 0 84.2 0H64.2Z" fill="#00A8E1"/>
  <path d="M64.2 0.8C46 0.8 30.8 12.4 27.8 27.8C27.6 28.8 28.4 29.8 29.4 29.8H119C120 29.8 120.8 28.8 120.6 27.8C117.6 12.4 102.4 0.8 84.2 0.8H64.2Z" fill="#FF9900"/>
  <path d="M26 8.59999L38.6 27.6L51.2 8.59999H57.6L41.2 32.8H36L19.6 8.59999H26Z" fill="white"/>
  <path d="M62 32.8V8.59999H68V32.8H62Z" fill="white"/>
  <path d="M77 32.8V8.59999H101V14H83V18H99.4V23H83V27.4H101V32.8H77Z" fill="white"/>
</svg>